<?xml version="1.0" standalone="no"?>
<!DOCTYPE svg PUBLIC "-//W3C//DTD SVG 20010904//EN"
 "http://www.w3.org/TR/2001/REC-SVG-20010904/DTD/svg10.dtd">
<svg version="1.0" xmlns="http://www.w3.org/2000/svg"
 width="300.000000pt" height="300.000000pt" viewBox="0 0 300.000000 300.000000"
 preserveAspectRatio="xMidYMid meet">
<metadata>
Created by potrace 1.10, written by Peter Selinger 2001-2011
</metadata>
<g transform="translate(0.000000,300.000000) scale(0.100000,-0.100000)"
fill="#000000" stroke="none">
<path d="M1285 2734 c-455 -70 -802 -316 -917 -650 -40 -115 -54 -241 -40
-343 13 -93 42 -180 77 -233 14 -20 25 -39 25 -42 0 -2 -20 -16 -45 -30 -99
-59 -190 -162 -208 -237 -6 -23 -1 -28 41 -48 26 -12 84 -43 128 -67 l82 -44
-19 -37 c-29 -58 -27 -191 6 -260 75 -163 293 -294 610 -368 190 -44 258 -50
525 -49 233 0 267 3 392 27 402 79 717 256 787 442 23 60 25 95 11 165 -8 42
-7 46 20 67 60 48 72 132 30 213 -19 35 -117 140 -132 140 -16 0 -8 37 12 55
35 31 81 112 107 187 23 64 26 89 26 203 0 112 -4 142 -27 220 -109 362 -459
618 -943 690 -128 19 -423 18 -548 -1z m515 -19 c63 -9 147 -25 185 -36 39
-11 81 -22 95 -25 31 -6 72 -24 180 -76 258 -125 430 -317 496 -553 23 -82 27
-291 7 -360 -19 -62 -57 -147 -75 -166 -22 -22 -58 -85 -58 -100 0 -8 15 -32
32 -54 18 -22 25 -34 15 -26 -9 7 -30 11 -47 9 -16 -3 -30 -1 -30 4 0 19 -21
-5 -44 -50 -77 -151 -293 -254 -616 -294 -139 -17 -613 -17 -750 0 -326 40
-535 141 -617 298 -17 33 -33 52 -41 49 -7 -3 -10 0 -7 5 3 6 1 10 -4 10 -6 0
-11 8 -11 18 -1 27 -25 52 -51 52 -14 0 -41 -11 -61 -25 -48 -33 -62 -32 -17
0 68 50 72 71 33 149 -43 84 -55 135 -61 252 -5 106 11 232 37 283 4 9 16 36
26 61 51 121 179 269 312 359 124 83 312 161 463 192 199 40 428 49 609 24z
m-1311 -1362 c28 -124 118 -242 231 -302 114 -61 310 -120 399 -121 29 0 32 2
21 15 -21 25 -6 28 81 16 45 -6 126 -11 181 -11 72 0 98 -3 98 -12 0 -10 2
-10 8 -1 5 9 54 12 167 13 88 0 174 2 190 5 17 2 62 6 101 10 39 3 86 10 103
15 24 7 31 6 28 -3 -2 -7 -14 -13 -27 -13 -35 -2 -134 -26 -145 -36 -17 -15
70 -8 187 16 277 58 461 187 512 359 5 17 9 16 42 -9 41 -32 90 -99 100 -138
5 -22 0 -32 -29 -60 -41 -39 -140 -76 -201 -76 -57 0 -137 -40 -190 -95 -44
-45 -62 -83 -87 -179 -16 -63 -52 -106 -89 -106 -35 0 -76 40 -146 146 -56 84
-90 122 -100 111 -4 -4 1 -18 10 -32 9 -14 12 -25 7 -25 -5 0 -12 7 -15 15 -3
9 -36 30 -73 47 -58 28 -76 32 -133 29 -123 -6 -265 -6 -372 1 -102 6 -109 5
-142 -17 -31 -21 -35 -22 -38 -7 -2 12 -26 -11 -72 -70 -38 -49 -70 -88 -72
-88 -2 0 -31 22 -66 48 -35 26 -142 94 -238 151 -96 57 -191 113 -210 125 -19
12 -88 48 -152 81 -65 33 -118 63 -118 67 0 21 201 184 231 187 3 1 12 -25 18
-56z m-242 -161 c15 -16 35 -31 43 -34 8 -3 13 -8 10 -11 -9 -10 -90 43 -90
59 0 20 4 18 37 -14z m293 -173 c0 -5 3 -8 8 -7 12 2 42 -13 42 -22 0 -5 -14
-2 -30 7 -71 35 -115 -12 -115 -122 0 -58 5 -77 26 -110 24 -36 121 -135 133
-135 2 0 31 -16 63 -35 54 -32 204 -98 220 -96 2 0 24 -7 50 -15 27 -8 57 -17
68 -20 38 -10 232 -43 296 -50 100 -12 425 -8 514 5 111 17 121 19 182 31 29
6 55 11 58 11 2 0 23 6 45 14 22 8 41 14 43 14 1 0 9 2 17 5 8 3 49 17 90 32
191 67 338 163 407 267 39 57 45 145 13 177 -21 21 -44 22 -122 4 -17 -4 -28
-2 -28 4 0 6 8 9 18 7 9 -1 22 1 27 5 6 5 24 10 41 13 17 3 54 16 82 29 l51
24 -13 -25 c-8 -16 -13 -58 -12 -113 2 -102 -18 -157 -81 -224 -46 -48 -117
-104 -132 -104 -6 0 -11 -3 -11 -7 0 -8 -105 -63 -180 -96 -100 -44 -285 -97
-390 -112 -25 -4 -67 -11 -94 -16 -85 -16 -327 -21 -469 -10 -137 11 -372 52
-408 72 -11 5 -19 7 -19 5 0 -18 -286 108 -317 140 -8 8 -18 14 -23 14 -19 0
-127 119 -150 165 -20 42 -24 64 -24 135 1 54 7 99 17 122 15 36 15 38 -9 60
-40 39 -27 40 46 2 39 -19 70 -40 70 -45z m1870 66 c0 -3 -23 -16 -52 -30 -56
-27 -53 -16 3 14 37 20 49 24 49 16z m-1515 -65 c14 -5 25 -11 25 -13 0 -8
-54 6 -79 20 l-26 15 27 -6 c15 -3 39 -11 53 -16z m1403 4 c-3 -2 -13 -5 -24
-7 -10 -2 -32 -9 -49 -16 -51 -20 -54 -20 -60 -11 -6 9 115 49 128 42 5 -2 7
-6 5 -8z m-1654 -106 c168 -99 283 -174 337 -219 26 -22 49 -39 52 -39 3 0 15
15 26 34 l21 33 64 -23 c201 -73 492 -74 771 -3 l80 21 15 -24 c32 -50 103
-118 134 -128 22 -7 42 -7 58 -1 40 15 84 77 102 144 44 157 110 221 245 238
36 4 76 11 88 14 19 6 22 2 28 -39 13 -81 -26 -145 -135 -228 -166 -126 -460
-226 -761 -259 -168 -18 -475 -6 -641 25 -235 45 -428 121 -547 217 -82 67
-111 118 -111 198 0 60 19 111 42 111 6 0 65 -32 132 -72z m447 55 c16 -3 29
-9 29 -13 0 -7 -43 -3 -70 7 -8 4 -21 5 -27 4 -7 -1 -13 3 -13 10 0 7 9 9 26
5 15 -4 39 -10 55 -13z m-327 -85 l21 -21 -31 18 c-17 9 -41 26 -55 37 l-24
19 34 -16 c19 -10 44 -26 55 -37z m822 13 c205 1 224 -1 260 -20 42 -22 89
-59 83 -65 -2 -2 -49 -14 -104 -26 -190 -42 -468 -38 -638 10 l-37 11 35 46
c19 25 35 49 35 52 0 4 33 3 73 -1 39 -4 171 -7 293 -7z m-401 -120 c58 -28
223 -49 360 -46 72 2 144 6 160 9 17 4 68 14 115 23 60 12 91 23 108 40 12 13
26 23 31 23 4 0 20 -22 35 -50 l27 -50 -29 6 c-16 3 -53 -2 -83 -11 -100 -30
-213 -46 -354 -50 -158 -4 -241 5 -367 40 -105 30 -109 30 -138 5 -30 -26 -30
-26 -65 12 l-30 33 28 -18 c37 -24 54 -17 107 42 42 47 45 48 55 27 6 -11 24
-27 40 -35z m993 -166 c36 2 43 -10 12 -20 -19 -6 -70 17 -70 31 0 4 6 2 13
-3 6 -6 27 -9 45 -8z"/>
<path d="M1425 2664 c-411 -41 -723 -188 -902 -424 -59 -79 -123 -205 -123
-244 0 -12 -3 -26 -7 -30 -19 -19 -19 -198 1 -275 16 -62 58 -145 94 -186 21
-25 108 -96 142 -116 39 -23 175 -77 215 -85 6 -1 28 -6 50 -12 22 -6 63 -14
90 -18 28 -3 54 -8 59 -11 4 -3 38 -7 75 -10 36 -2 91 -8 121 -13 58 -9 647
-5 715 5 299 43 363 60 511 132 190 92 288 245 285 447 -3 192 -66 342 -202
483 -119 123 -205 179 -404 263 -54 23 -161 51 -265 70 -110 20 -361 33 -455
24z m430 -44 c197 -34 386 -106 530 -203 79 -53 193 -167 238 -239 89 -138
126 -317 96 -460 -55 -259 -301 -401 -784 -449 -155 -16 -587 -16 -735 0 -347
36 -575 118 -687 245 -144 164 -149 421 -12 653 42 71 165 197 244 250 144 97
330 168 524 203 153 27 429 27 586 0z"/>
<path d="M807 2292 c-34 -37 -8 -71 54 -72 35 0 69 23 69 47 0 39 -93 58 -123
25z m74 -27 c0 -5 -12 -11 -26 -13 -18 -2 -25 1 -25 13 0 12 7 15 25 13 14 -2
26 -7 26 -13z"/>
<path d="M1110 2290 c-32 -32 -3 -70 55 -70 40 0 65 18 65 45 0 45 -83 62
-120 25z m80 -25 c0 -16 -45 -21 -54 -6 -8 12 4 21 31 21 14 0 23 -6 23 -15z"/>
<path d="M882 2094 c-27 -19 -29 -50 -3 -64 47 -25 121 -3 121 35 0 20 -40 45
-70 45 -14 0 -36 -7 -48 -16z m68 -24 c13 -9 13 -11 0 -20 -18 -12 -21 -12
-39 -1 -15 10 -7 31 12 31 7 0 19 -5 27 -10z"/>
<path d="M570 1344 c41 -48 228 -121 391 -153 167 -32 337 -44 609 -44 435 0
693 41 905 144 60 30 111 69 88 69 -5 0 -34 -13 -64 -30 -30 -16 -61 -30 -71
-30 -9 0 -18 -3 -20 -8 -3 -9 -147 -58 -193 -66 -16 -3 -41 -8 -55 -11 -14 -3
-47 -8 -75 -11 -27 -3 -68 -10 -90 -16 -51 -13 -676 -19 -775 -8 -41 5 -102
11 -135 15 -62 7 -232 42 -247 51 -4 3 -20 8 -35 10 -14 3 -73 27 -131 54 -58
28 -107 50 -110 50 -2 0 1 -7 8 -16z"/>
</g>
</svg>
